/* XPM */
const static char *cesar_c[] = {
/* columns rows colors chars-per-pixel */
"12 17 3 1 ",
"  c None",
". c #006000",
"X c green",
/* pixels */
" XXXXXXXXXX ",
"X XXXXXXXX .",
"XX XXXXXX ..",
"XXX      ...",
"XXX      ...",
"XXX      ...",
"XXX      ...",
"XX ...... ..",
"  ........  ",
"XX ...... ..",
"XXX      ...",
"XXX      ...",
"XXX      ...",
"XXX      ...",
"XX XXXXXX ..",
"X XXXXXXXX .",
" XXXXXXXXXX "
};
