/* XPM */
const static char *cesar_4[] = {
/* columns rows colors chars-per-pixel */
"12 17 3 1 ",
"  c None",
". c #006000",
"X c green",
/* pixels */
" .......... ",
"X ........ X",
"XX ...... XX",
"XXX      XXX",
"XXX      XXX",
"XXX      XXX",
"XXX      XXX",
"XX XXXXXX XX",
"  XXXXXXXX  ",
".. XXXXXX XX",
"...      XXX",
"...      XXX",
"...      XXX",
"...      XXX",
".. ...... XX",
". ........ X",
" .......... "
};
