/* XPM */
const static char *cesar_b[] = {
/* columns rows colors chars-per-pixel */
"12 17 3 1 ",
"  c None",
". c #006000",
"X c green",
/* pixels */
" .......... ",
"X ........ .",
"XX ...... ..",
"XXX      ...",
"XXX      ...",
"XXX      ...",
"XXX      ...",
"XX XXXXXX ..",
"  XXXXXXXX  ",
"XX XXXXXX XX",
"XXX      XXX",
"XXX      XXX",
"XXX      XXX",
"XXX      XXX",
"XX XXXXXX XX",
"X XXXXXXXX X",
" XXXXXXXXXX "
};
