/* XPM */
const static char *cesar_null[] = {
/* columns rows colors chars-per-pixel */
"12 17 2 1 ",
"  c None",
". c #006000",
/* pixels */
" .......... ",
". ........ .",
".. ...... ..",
"...      ...",
"...      ...",
"...      ...",
"...      ...",
".. ...... ..",
"  ........  ",
".. ...... ..",
"...      ...",
"...      ...",
"...      ...",
"...      ...",
".. ...... ..",
". ........ .",
" .......... "
};
