/* XPM */
const static char *character_36[] = {
/* columns rows colors chars-per-pixel */
"20 28 5 1 ",
"  c black",
". c cyan",
"X c #0000A0",
"o c yellow",
"O c white",
/* pixels */
" ..  ..  ..  XX  XX ",
".o...o...o..XXXXXXXX",
".o...o...o..XXXXXXXX",
" ..  ..  ..  XX  XX ",
" ..  XX  XX  ..  XX ",
".o..XXXXXXXX.o..XXXX",
".o..XXXXXXXX.o..XXXX",
" ..  XX  XX  ..  XX ",
" ..  XX  XX  XX  .. ",
".o..XXXXXXXXXXXX.o..",
".o..XXXXXXXXXXXX.o..",
" ..  XX  XX  XX  .. ",
" ..  XX  XX  XX  .. ",
".o..XXXXXXXXXXXX.o..",
".o..XXXXXXXXXXXX.o..",
" ..  XX  XX  XX  .. ",
" ..  XX  XX  XX  .. ",
".o..XXXXXXXXXXXX.o..",
".o..XXXXXXXXXXXX.o..",
" ..  XX  XX  XX  .. ",
" ..  XX  XX  ..  XX ",
".o..XXXXXXXX.o..XXXX",
".o..XXXXXXXX.o..XXXX",
" ..  XX  XX  ..  XX ",
" ..  ..  ..  XX  XX ",
".o...o...o..XXXXXXXX",
".o...o...o..XXXXXXXX",
" ..  ..  ..  XX  XX "
};
