/* XPM */
const static char *character_85[] = {
/* columns rows colors chars-per-pixel */
"20 28 5 1 ",
"  c black",
". c #0000A0",
"X c cyan",
"o c yellow",
"O c white",
/* pixels */
" ..  ..  ..  ..  .. ",
"....................",
"....................",
" ..  ..  ..  ..  .. ",
" ..  ..  ..  ..  .. ",
"....................",
"....................",
" ..  ..  ..  ..  .. ",
" XX  ..  ..  ..  XX ",
"XoXX............XoXX",
"XoXX............XoXX",
" XX  ..  ..  ..  XX ",
" XX  ..  ..  ..  XX ",
"XoXX............XoXX",
"XoXX............XoXX",
" XX  ..  ..  ..  XX ",
" XX  ..  ..  ..  XX ",
"XoXX............XoXX",
"XoXX............XoXX",
" XX  ..  ..  ..  XX ",
" XX  ..  ..  XX  XX ",
"XoXX........XoXXXoXX",
"XoXX........XoXXXoXX",
" XX  ..  ..  XX  XX ",
" ..  XX  XX  ..  XX ",
"....XoXXXoXX....XoXX",
"....XoXXXoXX....XoXX",
" ..  XX  XX  ..  XX "
};
