/* XPM */
const static char *character_84[] = {
/* columns rows colors chars-per-pixel */
"20 28 5 1 ",
"  c black",
". c #0000A0",
"X c cyan",
"o c yellow",
"O c white",
/* pixels */
" ..  ..  ..  ..  .. ",
"....................",
"....................",
" ..  ..  ..  ..  .. ",
" ..  ..  XX  ..  .. ",
"........XoXX........",
"........XoXX........",
" ..  ..  XX  ..  .. ",
" ..  XX  XX  XX  .. ",
"....XoXXXoXXXoXX....",
"....XoXXXoXXXoXX....",
" ..  XX  XX  XX  .. ",
" ..  ..  XX  ..  .. ",
"........XoXX........",
"........XoXX........",
" ..  ..  XX  ..  .. ",
" ..  ..  XX  ..  .. ",
"........XoXX........",
"........XoXX........",
" ..  ..  XX  ..  .. ",
" ..  ..  XX  ..  XX ",
"........XoXX....XoXX",
"........XoXX....XoXX",
" ..  ..  XX  ..  XX ",
" ..  ..  ..  XX  .. ",
"............XoXX....",
"............XoXX....",
" ..  ..  ..  XX  .. "
};
