/* XPM */
const static char *character_13[] = {
/* columns rows colors chars-per-pixel */
"20 28 5 1 ",
"  c black",
". c #0000A0",
"X c cyan",
"o c yellow",
"O c white",
/* pixels */
" ..  ..  ..  ..  .. ",
"....................",
"....................",
" ..  ..  ..  ..  .. ",
" ..  ..  ..  ..  .. ",
"....................",
"....................",
" ..  ..  ..  ..  .. ",
" ..  ..  ..  ..  .. ",
"....................",
"....................",
" ..  ..  ..  ..  .. ",
" XX  XX  XX  XX  XX ",
"XoXXXoXXXoXXXoXXXoXX",
"XoXXXoXXXoXXXoXXXoXX",
" XX  XX  XX  XX  XX ",
" ..  ..  ..  ..  .. ",
"....................",
"....................",
" ..  ..  ..  ..  .. ",
" ..  ..  ..  ..  .. ",
"....................",
"....................",
" ..  ..  ..  ..  .. ",
" ..  ..  ..  ..  .. ",
"....................",
"....................",
" ..  ..  ..  ..  .. "
};
