/* XPM */
const static char *character_72[] = {
/* columns rows colors chars-per-pixel */
"20 28 5 1 ",
"  c black",
". c cyan",
"X c #0000A0",
"o c yellow",
"O c white",
/* pixels */
" ..  XX  XX  XX  XX ",
".o..XXXXXXXXXXXXXXXX",
".o..XXXXXXXXXXXXXXXX",
" ..  XX  XX  XX  XX ",
" ..  XX  XX  XX  XX ",
".o..XXXXXXXXXXXXXXXX",
".o..XXXXXXXXXXXXXXXX",
" ..  XX  XX  XX  XX ",
" ..  XX  ..  ..  XX ",
".o..XXXX.o...o..XXXX",
".o..XXXX.o...o..XXXX",
" ..  XX  ..  ..  XX ",
" ..  ..  XX  XX  .. ",
".o...o..XXXXXXXX.o..",
".o...o..XXXXXXXX.o..",
" ..  ..  XX  XX  .. ",
" ..  XX  XX  XX  .. ",
".o..XXXXXXXXXXXX.o..",
".o..XXXXXXXXXXXX.o..",
" ..  XX  XX  XX  .. ",
" ..  XX  XX  XX  .. ",
".o..XXXXXXXXXXXX.o..",
".o..XXXXXXXXXXXX.o..",
" ..  XX  XX  XX  .. ",
" ..  XX  XX  XX  .. ",
".o..XXXXXXXXXXXX.o..",
".o..XXXXXXXXXXXX.o..",
" ..  XX  XX  XX  .. "
};
