/* XPM */
const static char *character_21[] = {
/* columns rows colors chars-per-pixel */
"20 28 5 1 ",
"  c black",
". c cyan",
"X c yellow",
"o c #0000A0",
"O c white",
/* pixels */
" ..  ..  ..  ..  .. ",
".X...X...X...X...X..",
".X...X...X...X...X..",
" ..  ..  ..  ..  .. ",
" ..  oo  oo  oo  oo ",
".X..oooooooooooooooo",
".X..oooooooooooooooo",
" ..  oo  oo  oo  oo ",
" ..  ..  ..  ..  oo ",
".X...X...X...X..oooo",
".X...X...X...X..oooo",
" ..  ..  ..  ..  oo ",
" oo  oo  oo  oo  .. ",
"oooooooooooooooo.X..",
"oooooooooooooooo.X..",
" oo  oo  oo  oo  .. ",
" oo  oo  oo  oo  .. ",
"oooooooooooooooo.X..",
"oooooooooooooooo.X..",
" oo  oo  oo  oo  .. ",
" ..  oo  oo  oo  .. ",
".X..oooooooooooo.X..",
".X..oooooooooooo.X..",
" ..  oo  oo  oo  .. ",
" oo  ..  ..  ..  oo ",
"oooo.X...X...X..oooo",
"oooo.X...X...X..oooo",
" oo  ..  ..  ..  oo "
};
