/* XPM */
const static char *character_82[] = {
/* columns rows colors chars-per-pixel */
"20 28 5 1 ",
"  c black",
". c #0000A0",
"X c cyan",
"o c yellow",
"O c white",
/* pixels */
" ..  ..  ..  ..  .. ",
"....................",
"....................",
" ..  ..  ..  ..  .. ",
" ..  ..  ..  ..  .. ",
"....................",
"....................",
" ..  ..  ..  ..  .. ",
" ..  XX  ..  XX  XX ",
"....XoXX....XoXXXoXX",
"....XoXX....XoXXXoXX",
" ..  XX  ..  XX  XX ",
" ..  XX  XX  ..  .. ",
"....XoXXXoXX........",
"....XoXXXoXX........",
" ..  XX  XX  ..  .. ",
" ..  XX  ..  ..  .. ",
"....XoXX............",
"....XoXX............",
" ..  XX  ..  ..  .. ",
" ..  XX  ..  ..  .. ",
"....XoXX............",
"....XoXX............",
" ..  XX  ..  ..  .. ",
" ..  XX  ..  ..  .. ",
"....XoXX............",
"....XoXX............",
" ..  XX  ..  ..  .. "
};
