/* XPM */
const static char *character_44[] = {
/* columns rows colors chars-per-pixel */
"20 28 5 1 ",
"  c black",
". c cyan",
"X c #0000A0",
"o c yellow",
"O c white",
/* pixels */
" ..  XX  XX  XX  XX ",
".o..XXXXXXXXXXXXXXXX",
".o..XXXXXXXXXXXXXXXX",
" ..  XX  XX  XX  XX ",
" ..  XX  XX  XX  XX ",
".o..XXXXXXXXXXXXXXXX",
".o..XXXXXXXXXXXXXXXX",
" ..  XX  XX  XX  XX ",
" ..  XX  XX  XX  XX ",
".o..XXXXXXXXXXXXXXXX",
".o..XXXXXXXXXXXXXXXX",
" ..  XX  XX  XX  XX ",
" ..  XX  XX  XX  XX ",
".o..XXXXXXXXXXXXXXXX",
".o..XXXXXXXXXXXXXXXX",
" ..  XX  XX  XX  XX ",
" ..  XX  XX  XX  XX ",
".o..XXXXXXXXXXXXXXXX",
".o..XXXXXXXXXXXXXXXX",
" ..  XX  XX  XX  XX ",
" ..  XX  XX  XX  XX ",
".o..XXXXXXXXXXXXXXXX",
".o..XXXXXXXXXXXXXXXX",
" ..  XX  XX  XX  XX ",
" ..  ..  ..  ..  .. ",
".o...o...o...o...o..",
".o...o...o...o...o..",
" ..  ..  ..  ..  .. "
};
