/* XPM */
const static char *character_58[] = {
/* columns rows colors chars-per-pixel */
"20 28 5 1 ",
"  c black",
". c cyan",
"X c yellow",
"o c #0000A0",
"O c white",
/* pixels */
" ..  ..  ..  ..  .. ",
".X...X...X...X...X..",
".X...X...X...X...X..",
" ..  ..  ..  ..  .. ",
" oo  oo  oo  oo  .. ",
"oooooooooooooooo.X..",
"oooooooooooooooo.X..",
" oo  oo  oo  oo  .. ",
" oo  oo  oo  ..  oo ",
"oooooooooooo.X..oooo",
"oooooooooooo.X..oooo",
" oo  oo  oo  ..  oo ",
" oo  oo  ..  oo  oo ",
"oooooooo.X..oooooooo",
"oooooooo.X..oooooooo",
" oo  oo  ..  oo  oo ",
" oo  ..  oo  oo  oo ",
"oooo.X..oooooooooooo",
"oooo.X..oooooooooooo",
" oo  ..  oo  oo  oo ",
" ..  oo  oo  oo  oo ",
".X..oooooooooooooooo",
".X..oooooooooooooooo",
" ..  oo  oo  oo  oo ",
" ..  ..  ..  ..  .. ",
".X...X...X...X...X..",
".X...X...X...X...X..",
" ..  ..  ..  ..  .. "
};
