/* XPM */
const static char* dechex10[] = {
"66 24 62 1",
" 	c #000000",
"!	c #0000a8",
"#	c #00ff00",
"$	c #fffb00",
"%	c #82ff00",
"&	c #00ff00",
"'	c #00ff7d",
"(	c #00ffff",
")	c #0082ff",
"*	c #0000ff",
"+	c #7900ff",
",	c #cf00ff",
"-	c #ff00d7",
".	c #ff0082",
"/	c #ff0000",
"0	c #ff7d00",
"1	c #cb9a45",
"2	c #963c18",
"3	c #610000",
"4	c #fff782",
"5	c #c3ff82",
"6	c #82ff82",
"7	c #82ffbe",
"8	c #82ffff",
"9	c #82c3ff",
":	c #8282ff",
";	c #a682ff",
"<	c #cf82ff",
"=	c #fb82ff",
">	c #ff82c3",
"?	c #ff8282",
"@	c #ff9e82",
"A	c #820000",
"B	c #821c00",
"C	c #823c00",
"D	c #825100",
"E	c #826500",
"F	c #827900",
"G	c #418200",
"H	c #008200",
"I	c #00823c",
"J	c #008282",
"K	c #004182",
"L	c #000082",
"M	c #280082",
"N	c #4d0082",
"O	c #790082",
"P	c #820041",
"Q	c #000000",
"R	c #101010",
"S	c #202020",
"T	c #303030",
"U	c #454545",
"V	c #555555",
"W	c #656565",
"X	c #757575",
"Y	c #868686",
"Z	c #9a9a9a",
"[	c #aaaaaa",
"]	c #bababa",
"^	c #cbcbcb",
"_	c #dfdfdf",
"999999999999999999999999999999999)XXXXXXXXXXXXXXXXXXXXXXXXXXXXXXXX",
"9))))))))))))))))))))))))))))))))*UWWWWWWWWWWWWWWWWWWWWWWWWWWWWWWX",
"9))))))))))))))))))))))))))))))))*UWWWWWWWWWWWWWWWWWWWWWWWWWWWWWWX",
"9))))))))))))))))))))))))))))))))*UWWWWWWWWWWWWWWWWWWWWWWWWWWWWWWX",
"9))))))))))))))))))))))))))))))))*UWWWWWWWWWWWWWWWWWWWWWWWWWWWWWWX",
"9))))))))))))))))))))))))))))))))*UWWWWWWWWWWWWWWWWWWWWWWWWWWWWWWX",
"9))))))))))))))))))))))))))))))))*UWWWWWWWWWWWWWWWWWWWWWWWWWWWWWWX",
"9))))))))))))))))))))))))))))))))*UWWWWWWWWWWWWWWWWWWWWWWWWWWWWWWX",
"9))))))))__ )))))__ ))__ ))))))))*UWWWWWWWWWWWWWWWWWWWWWWWWWWWWWWX",
"9)))))))_ )_ )))))_ )_ )_ )))))))*UWWWWWWWWW^^ WWWWW^^^^ WWWWWWWWX",
"9)))))))_ )_ )))))_ )_ )_ )))))))*UWWWWWWWW^ W^ WWWW^ WWWWWWWWWWWX",
"9)))))))_ )_ )))))_ )_ )_ )))))))*UWWWWWWWW^ W^ WWWW^ WWWWWWWWWWWX",
"9)))))))_ )_ )))))_ )_ )_ )))))))*UWWWWWWWW^ W^ WWWW^^^^ WWWWWWWWX",
"9)))))))_ )_ )))))_ )_ )_ )))))))*UWWWWWWWW^ W^ WWWW^ WWWWWWWWWWWX",
"9))))))))__ )_ _ ___ )__ ))))))))*UWWWWWWWW^ W^ WWWW^ WWWWWWWWWWWX",
"9))))))))))))))))))))))))))))))))*UWWWWWWWWW^^ W^ ^ ^ WWWWWWWWWWWX",
"9))))))))))))))))))))))))))))))))*UWWWWWWWWWWWWWWWWWWWWWWWWWWWWWWX",
"9))))))))))))))))))))))))))))))))*UWWWWWWWWWWWWWWWWWWWWWWWWWWWWWWX",
"9))))))))))))))))))))))))))))))))*UWWWWWWWWWWWWWWWWWWWWWWWWWWWWWWX",
"9))))))))))))))))))))))))))))))))*UWWWWWWWWWWWWWWWWWWWWWWWWWWWWWWX",
"9))))))))))))))))))))))))))))))))*UWWWWWWWWWWWWWWWWWWWWWWWWWWWWWWX",
"9))))))))))))))))))))))))))))))))*UWWWWWWWWWWWWWWWWWWWWWWWWWWWWWWX",
"9))))))))))))))))))))))))))))))))*UWWWWWWWWWWWWWWWWWWWWWWWWWWWWWWX",
"9*********************************UZZZZZZZZZZZZZZZZZZZZZZZZZZZZZZZ"
};
