/* XPM */
const static char *slider[] = {
/* columns rows colors chars-per-pixel */
"66 28 112 2 ",
"   c None",
".  c #2F6A2F",
"X  c #2D762D",
"o  c #2F7A2F",
"O  c #446E43",
"+  c #4D7E4D",
"@  c #597759",
"#  c #587E58",
"$  c #338533",
"%  c #358C35",
"&  c #3B853B",
"*  c #398839",
"=  c #369236",
"-  c #379A37",
";  c #399439",
":  c #389E38",
">  c #39A339",
",  c #3AAB3A",
"<  c #3CB43C",
"1  c #3DBA3D",
"2  c #419440",
"3  c #4A974A",
"4  c #4F9B4E",
"5  c #538453",
"6  c #5A9259",
"7  c #5C9E5C",
"8  c #47AD46",
"9  c #4EA54E",
"0  c #44B743",
"q  c #46BB45",
"w  c #54AA52",
"e  c #5EA35E",
"r  c #61AF5E",
"t  c #669266",
"y  c #669A65",
"u  c #6D9F6B",
"i  c #728E72",
"p  c #798478",
"a  c #7B8C7A",
"s  c #789278",
"d  c #69AC65",
"f  c #6EAB6A",
"g  c #72A76D",
"h  c #65B665",
"j  c #76A075",
"k  c #7BA776",
"l  c #7CAB79",
"z  c #73B573",
"x  c #7BB579",
"c  c #73C073",
"v  c #858D84",
"b  c #8F8E8D",
"n  c #958C8C",
"m  c #859384",
"M  c #869E80",
"N  c #8A9789",
"B  c #8A9A89",
"V  c #9A9191",
"C  c #929D92",
"Z  c #9B9C93",
"A  c #A09797",
"S  c #A49C9C",
"D  c #84A782",
"F  c #88AC83",
"G  c #8DAE89",
"H  c #97A794",
"J  c #96AA94",
"K  c #99AA94",
"L  c #9EAF9C",
"P  c #9CB097",
"I  c #9DB49A",
"U  c #9EB89D",
"Y  c #A7A19F",
"T  c #A0B49C",
"R  c #A5A3A3",
"E  c #AAA3A3",
"W  c #AAACA7",
"Q  c #ACA9A9",
"!  c #B1ABAB",
"~  c #A1B1A1",
"^  c #A5BFA2",
"/  c #AEB5AC",
"(  c #B0B3AB",
")  c #B6B1B1",
"_  c #BAB4B4",
"`  c #B5BBB3",
"'  c #BEBABA",
"]  c #C2BDBD",
"[  c #87C187",
"{  c #91C691",
"}  c #93CA93",
"|  c #9CC29A",
" . c #A6C0A4",
".. c #ACC5AB",
"X. c #AAC8A8",
"o. c #B6CFB5",
"O. c #BCC1BC",
"+. c #BACABA",
"@. c #C1C6BE",
"#. c #C5C2C1",
"$. c #C9C5C5",
"%. c #CECCCC",
"&. c #D2CFCF",
"*. c #CDD9CD",
"=. c #D4D3D3",
"-. c #D9D6D6",
";. c #D7D8D7",
":. c #DBDBDB",
">. c #E4E4E4",
",. c #E3EBE3",
"<. c #ECECEC",
"1. c #F3F3F3",
/* pixels */
"                    Y V V V n n b b n n n n n n n n n n n n n n n n V b n n n n n n n n n n n n n n n n V V V S                     ",
"              Q V Z V Z V V V V V C V V b V V C V V n V V V V V V V V V V n V V V Z V V V V n C V V n V V V V V V A !               ",
"            S Z Z Z Z K ^ o.+. .| x r h d d e r r r r r r r r r r r r r r r w r r r r r r r r r r r r r r g M Z A A V A             ",
"          S A A Z / >.1.1.1.1.1.1.1.,.} q 1 1 1 1 1 1 1 1 1 1 1 1 1 1 1 1 1 1 1 1 1 1 1 < 1 1 1 1 1 1 1 1 1 1 q d V A A S _         ",
"        S S S U <.1.1.1.1.1.1.1.1.1.1.1.,.c 1 1 1 1 1 1 1 1 1 < < 1 1 1 1 1 1 1 1 1 1 1 1 1 1 1 1 1 1 1 1 1 1 1 1 0 k S S S         ",
"      E E E  .1.1.1.1.1.1.1.1.1.1.1.1.1.1.1.} 1 < 1 < 1 < < 1 < 1 1 < < 1 1 1 < < 1 < < < < < < < 1 < 1 < < < 1 1 < < d Y E E       ",
"    ! E E  .1.1.1.1.1.1.<.1.1.1.1.<.1.1.1.1.1.G < < < < < < < < < < < < < < < < < < < < < < < < 1 1 < < 1 < < < < < < < f E E !     ",
"  ] ! ! I <.<.1.1.<.<.1.<.1.<.1.1.<.<.<.1.<.<.<.h < < , < < , < , < < , < < , < , < < , < < < , , , , < , < , < , < < < , F ! ! ]   ",
"  ) ( ( ;.<.<.<.<.<.<.<.<.<.<.<.<.<.<.<.<.<.<.<.*., < , < , , , , , < , , , , , , , , < , , , , , , , , , , , , , , , , < 8 Q ! )   ",
"  _ _ T <.<.<.<.<.<.<.<.<.<.<.<.<.<.<.<.<.<.<.<.<.z , , , , , , , , , , , , , , , , , , , , , , , , , , , , , , , , , , , , l ) )   ",
"#._ _ +.>.<.<.>.>.>.<.<.<.<.>.<.<.<.>.<.<.<.<.<.<..., > , > , , , , , , , , , , , , , , , , > , , , , > , , , , , , , , , , w _ ) ] ",
"] _ / >.>.>.<.>.>.<.>.<.>.>.<.>.>.<.>.<.>.>.>.>.<.:., > , > > > > > > > > > > > > > > , > > , > > , , > > , > > > , > > > , > ( ) ] ",
"_ _ T >.>.>.<.>.>.>.>.>.>.>.<.>.>.>.<.>.<.>.>.>.>.>.9 > > > > > > > > > > > > > > > > > > > > > > > > > > > > > > > > > > > > K _ ] ",
"_ _ L >.>.>.>.>.>.>.>.>.>.>.>.>.>.>.>.>.>.>.>.>.>.>.e > - > > > > > : : : : : : > > > : > : > > > > > - - > > > > : > : : > > G _ ] ",
"' ' J >.>.:.>.>.>.>.>.>.>.>.>.>.>.>.>.>.>.>.>.>.:.>.7 : > > - > : : : : : : : : : : : > - > : : - > - > > : : : : : : : : : : G _ ] ",
"] ] H :.>.>.:.:.>.>.:.>.:.>.:.>.:.>.:.:.>.:.>.:.>.>.3 : - - - - : : - : : : : - - - - - - - - - - - - - - - - - - - - - - : : T ] ] ",
"#.] / :.:.:.>.:.:.:.>.:.>.:.:.>.:.:.:.:.>.:.>.:.:.:.; - - - - - - - - - - - - - - - - - - - - : - - - - - - - - - - - - - - : / ] $.",
"%.] O./ :.:.:.:.:.:.:.:.:.:.:.:.:.:.:.:.:.:.:.:.:.~ = = = = = - % - = - = = = - = = = - = = = = - = = = = = = = = = = = = = 4 ] ] &.",
"  #.#.B :.:.:.:.:.:.;.;.:.:.:.:.:.:.:.:.:.:.:.:.:.t = = = = = = - % - % - % = = - % = = = = = = = = = = = = = = = = = = = = l ] ]   ",
"  $.#.E ' ;.;.:.;.;.;.;.:.;.;.;.:.:.;.;.;.;.;.:.` $ = = = = = $ = % = % = % = % = % = % = % = = % = = = = = % = = = % = = 2 ] $.$.  ",
"  &.$.$.m =.;.;.;.;.;.;.;.;.;.;.;.;.=.=.;.;.;.=.5 = $ = $ = $ = % % % % % % % % % % % % % % % % % % % % % % % % % % % % % F $.$.    ",
"    %.$.) B =.=.;.;.=.=.;.;.;.;.=.=.;.=.=.=.;.i $ $ = $ = $ = $ % % % % % % % % % % % % % % % % % % % % % % % % % % % % u $.$.&.    ",
"      %.%.W B =.;.=.;.%.%.;.;.&.=.=.=.=.=.=.a o $ = $ $ $ $ $ $ $ % $ $ % $ $ % $ % $ $ $ $ % * $ % $ % $ $ % $ $ % $ y $.$.$.      ",
"        %.%.W a O.=.%.;.&.%.&.&.=.*.=.=.O.@ o $ $ $ $ $ $ $ $ $ $ $ $ $ $ $ $ $ $ $ $ $ $ $ $ $ $ $ $ $ $ $ $ $ $ * D %.%.&.        ",
"          =.%.) v N ' &.&.&.&.&.%.%.O.i . o o o & & $ o $ $ o & $ $ $ $ o * $ o $ $ o $ $ $ $ o o $ $ $ $ $ $ & y @.&.%.&.          ",
"            =.&.%.E b p v N C m a @ O + 6 6 6 6 6 6 6 6 6 6 6 6 6 6 6 6 6 6 6 6 6 6 6 6 6 6 6 6 6 6 6 6 y s T %.&.&.&.=.            ",
"                =.&.=.#.! Q R Q ) O.=.%.%.&.%.=.=.%.=.=.&.&.&.&.&.&.&.&.&.&.=.&.&.=.=.&.&.&.=.&.=.=.&.=.&.&.=.=.&.=.                ",
"                    :.=.-.=.=.=.=.=.=.=.=.=.=.=.&.=.=.=.&.&.;.&.=.&.-.&.&.-.&.-.&.=.=.=.-.&.=.=.&.=.=.=.=.;.=.:.                    "
};
